<svg width="278" height="31" viewBox="0 0 278 31" fill="none" xmlns="http://www.w3.org/2000/svg">
<path d="M145.862 22C148.124 22 149.37 21.4662 150.386 20.5003C151.429 19.4835 151.937 18.2634 151.937 16.9417C151.937 15.0098 150.895 13.4847 148.963 12.8238C150.183 12.1884 151.047 10.9174 151.047 9.49396C151.047 8.55346 150.666 7.68923 150.005 7.00292C149.09 6.03701 147.616 5.40154 145.557 5.40154H135.618V22H145.862ZM145.735 14.8065C146.523 14.8065 147.107 15.0607 147.565 15.5182C147.921 15.8995 148.15 16.3824 148.15 16.9162C148.15 17.45 147.921 17.9838 147.565 18.3651C147.133 18.7718 146.497 19.0006 145.735 19.0006H139.278V14.8065H145.735ZM145.125 8.42637C145.938 8.42637 146.421 8.6043 146.777 8.98558C147.082 9.29061 147.285 9.69731 147.285 10.1803C147.285 10.6886 147.082 11.1716 146.726 11.5275C146.345 11.9087 145.811 12.0613 145.125 12.0613H139.278V8.42637H145.125ZM152.767 22H156.606L158.105 18.4922H165.782L167.307 22H171.298L163.596 5.40154H160.469L152.767 22ZM161.867 9.74815H162.02L164.536 15.6199H159.351L161.867 9.74815ZM173.202 5.40154V22H186.598V18.8735H176.837V5.40154H173.202ZM196.496 22C199.623 22 201.428 21.1612 202.851 19.814C204.402 18.2889 205.24 16.1028 205.24 13.6881C205.24 11.3495 204.452 9.26519 203.004 7.76548C201.529 6.26578 199.547 5.40154 196.496 5.40154H188.693V22H196.496ZM192.328 18.8735V8.55346H196.369C198.326 8.55346 199.216 9.03642 200.055 9.87524C200.97 10.8157 201.453 12.1375 201.453 13.7135C201.453 15.3911 200.894 16.7129 199.928 17.6788C199.064 18.4414 198.276 18.8735 196.369 18.8735H192.328ZM205.569 22H209.407L210.907 18.4922H218.583L220.108 22H224.099L216.397 5.40154H213.271L205.569 22ZM214.669 9.74815H214.821L217.338 15.6199H212.152L214.669 9.74815ZM239.832 7.13001C238.408 6.1641 235.485 4.89316 232.028 4.89316C228.901 4.89316 225.165 6.13868 225.165 10.1548C225.165 14.3744 229.435 14.7811 233.07 15.0098C235.561 15.2132 237.264 15.569 237.264 17.1704C237.264 18.721 235.587 19.5344 233.477 19.5344C230.122 19.5344 227.758 17.8567 226.36 16.7383L224.301 19.2294C226.233 20.8053 229.13 22.5084 233.426 22.5084C237.493 22.5084 240.899 20.907 240.899 16.8146C240.899 12.2392 236.171 11.8833 233.146 11.68C230.986 11.502 228.8 11.4004 228.8 9.92608C228.8 8.50263 230.274 7.89258 231.926 7.89258C234.672 7.89258 236.756 8.93475 237.747 9.67189L239.832 7.13001ZM257.382 7.13001C255.959 6.1641 253.036 4.89316 249.579 4.89316C246.452 4.89316 242.716 6.13868 242.716 10.1548C242.716 14.3744 246.986 14.7811 250.621 15.0098C253.112 15.2132 254.815 15.569 254.815 17.1704C254.815 18.721 253.137 19.5344 251.028 19.5344C247.672 19.5344 245.309 17.8567 243.91 16.7383L241.852 19.2294C243.783 20.8053 246.681 22.5084 250.977 22.5084C255.044 22.5084 258.45 20.907 258.45 16.8146C258.45 12.2392 253.722 11.8833 250.697 11.68C248.537 11.502 246.351 11.4004 246.351 9.92608C246.351 8.50263 247.825 7.89258 249.477 7.89258C252.222 7.89258 254.307 8.93475 255.298 9.67189L257.382 7.13001ZM258.792 22H262.631L264.13 18.4922H271.807L273.332 22H277.323L269.621 5.40154H266.494L258.792 22ZM267.892 9.74815H268.045L270.561 15.6199H265.376L267.892 9.74815Z" fill="black"/>
<path d="M20.3868 22V5.40074H17.006L11.5915 14.5011H11.5407L6.1008 5.40074H2.61826V22H6.15164V12.3658H6.27874L10.9306 20.1189H11.9474L16.5993 12.3658H16.7264V22H20.3868ZM22.3003 22H26.1387L27.6385 18.492H35.3153L36.8405 22H40.8315L33.1292 5.40074H30.0026L22.3003 22ZM31.4007 9.74756H31.5532L34.0698 15.6196H28.8841L31.4007 9.74756ZM46.3712 22V15.8992H51.3027L54.6582 22H58.827L54.9378 15.3145C56.9714 14.4248 58.2932 12.7725 58.2932 10.6373C58.2932 9.31542 57.7848 8.12068 56.9205 7.20556C55.8529 6.08708 54.3023 5.40074 51.9382 5.40074H42.7362V22H46.3712ZM52.0653 8.47656C52.7262 8.47656 53.4634 8.55282 54.0481 9.18832C54.4294 9.56962 54.6327 10.078 54.6327 10.6373C54.6327 11.9083 53.5905 12.8234 52.3195 12.8234H46.3712V8.47656H52.0653ZM75.4333 16.7381C73.9843 18.187 71.8745 19.3817 69.6121 19.3817C66.1804 19.3817 63.9688 16.8397 63.9688 13.7131C63.9688 10.6118 66.1295 8.04442 69.485 8.04442C71.2644 8.04442 73.3997 8.85786 74.9249 10.1797L77.2127 7.79022C75.2299 6.08708 72.2303 4.89234 69.1799 4.89234C63.8163 4.89234 60.1558 8.9087 60.1558 13.6877C60.1558 18.5683 63.7909 22.5084 69.307 22.5084C72.9421 22.5084 75.84 20.8815 77.7465 19.1021L75.4333 16.7381ZM78.2779 13.6622C78.2779 18.5937 82.3959 22.5084 87.6579 22.5084C92.9198 22.5084 97.1395 18.5937 97.1395 13.6622C97.1395 8.83244 92.9198 4.89234 87.6579 4.89234C82.3959 4.89234 78.2779 8.83244 78.2779 13.6622ZM82.0909 13.6622C82.0909 10.5864 84.5312 8.04442 87.6579 8.04442C90.8354 8.04442 93.3265 10.5864 93.3265 13.6622C93.3265 16.7889 90.8354 19.3817 87.6579 19.3817C84.5312 19.3817 82.0909 16.7889 82.0909 13.6622Z" fill="black"/>
<path fill-rule="evenodd" clip-rule="evenodd" d="M115.392 24C115.182 18.6646 110.792 14.4032 105.406 14.4C110.925 14.3966 115.398 9.92312 115.4 4.40438C115.402 9.79124 119.664 14.1822 125 14.3921V14.4078C119.795 14.6126 115.613 18.7953 115.408 24H115.392ZM105 14.4078V14.3921C105.131 14.3972 105.262 14.3999 105.394 14.4C105.262 14.4 105.131 14.4027 105 14.4078ZM115.392 4C115.397 4.13122 115.4 4.26308 115.4 4.39555C115.4 4.26308 115.403 4.13122 115.408 4H115.392Z" fill="black"/>
</svg>
