<svg width="145" height="68" viewBox="0 0 145 68" fill="none" xmlns="http://www.w3.org/2000/svg">
<path d="M12.8619 59C15.1242 59 16.3697 58.4662 17.3864 57.5003C18.4286 56.4835 18.937 55.2634 18.937 53.9417C18.937 52.0098 17.8948 50.4847 15.963 49.8238C17.1831 49.1884 18.0473 47.9174 18.0473 46.494C18.0473 45.5535 17.6661 44.6892 17.0052 44.0029C16.0901 43.037 14.6158 42.4015 12.5569 42.4015H2.61813V59H12.8619ZM12.7348 51.8065C13.5228 51.8065 14.1074 52.0607 14.565 52.5182C14.9208 52.8995 15.1496 53.3824 15.1496 53.9162C15.1496 54.45 14.9208 54.9838 14.565 55.3651C14.1328 55.7718 13.4974 56.0006 12.7348 56.0006H6.27844V51.8065H12.7348ZM12.1248 45.4264C12.9382 45.4264 13.4211 45.6043 13.777 45.9856C14.082 46.2906 14.2854 46.6973 14.2854 47.1803C14.2854 47.6886 14.082 48.1716 13.7261 48.5275C13.3449 48.9087 12.8111 49.0613 12.1248 49.0613H6.27844V45.4264H12.1248ZM19.7673 59H23.6055L25.1052 55.4922H32.7817L34.3068 59H38.2976L30.5957 42.4015H27.4692L19.7673 59ZM28.8672 46.7481H29.0197L31.5362 52.6199H26.3507L28.8672 46.7481ZM40.2022 42.4015V59H53.5979V55.8735H43.8371V42.4015H40.2022ZM63.4963 59C66.6228 59 68.4276 58.1612 69.851 56.814C71.4015 55.2889 72.2404 53.1028 72.2404 50.6881C72.2404 48.3495 71.4524 46.2652 70.0035 44.7655C68.5292 43.2658 66.5466 42.4015 63.4963 42.4015H55.6927V59H63.4963ZM59.3276 55.8735V45.5535H63.3692C65.3265 45.5535 66.2161 46.0364 67.0549 46.8752C67.97 47.8157 68.453 49.1375 68.453 50.7135C68.453 52.3911 67.8938 53.7129 66.9278 54.6788C66.0636 55.4414 65.2756 55.8735 63.3692 55.8735H59.3276ZM72.5688 59H76.4071L77.9068 55.4922H85.5832L87.1084 59H91.0991L83.3972 42.4015H80.2707L72.5688 59ZM81.6688 46.7481H81.8213L84.3377 52.6199H79.1523L81.6688 46.7481ZM106.832 44.13C105.408 43.1641 102.485 41.8932 99.028 41.8932C95.9015 41.8932 92.1649 43.1387 92.1649 47.1548C92.1649 51.3744 96.4353 51.7811 100.07 52.0098C102.561 52.2132 104.264 52.569 104.264 54.1704C104.264 55.721 102.587 56.5344 100.477 56.5344C97.1216 56.5344 94.7576 54.8567 93.3596 53.7383L91.3007 56.2294C93.2325 57.8053 96.1302 59.5084 100.426 59.5084C104.493 59.5084 107.899 57.907 107.899 53.8146C107.899 49.2392 103.171 48.8833 100.146 48.68C97.9858 48.502 95.7998 48.4004 95.7998 46.9261C95.7998 45.5026 97.2741 44.8926 98.9263 44.8926C101.672 44.8926 103.756 45.9347 104.747 46.6719L106.832 44.13ZM124.382 44.13C122.959 43.1641 120.036 41.8932 116.579 41.8932C113.452 41.8932 109.716 43.1387 109.716 47.1548C109.716 51.3744 113.986 51.7811 117.621 52.0098C120.112 52.2132 121.815 52.569 121.815 54.1704C121.815 55.721 120.137 56.5344 118.028 56.5344C114.672 56.5344 112.309 54.8567 110.91 53.7383L108.852 56.2294C110.783 57.8053 113.681 59.5084 117.977 59.5084C122.044 59.5084 125.45 57.907 125.45 53.8146C125.45 49.2392 120.722 48.8833 117.697 48.68C115.537 48.502 113.351 48.4004 113.351 46.9261C113.351 45.5026 114.825 44.8926 116.477 44.8926C119.222 44.8926 121.307 45.9347 122.298 46.6719L124.382 44.13ZM125.792 59H129.631L131.13 55.4922H138.807L140.332 59H144.323L136.621 42.4015H133.494L125.792 59ZM134.892 46.7481H135.045L137.561 52.6199H132.376L134.892 46.7481Z" fill="black"/>
<path d="M43.3868 32V15.4007H40.006L34.5915 24.5011H34.5407L29.1008 15.4007H25.6183V32H29.1516V22.3658H29.2787L33.9306 30.1189H34.9474L39.5993 22.3658H39.7264V32H43.3868ZM45.3003 32H49.1387L50.6385 28.492H58.3153L59.8405 32H63.8315L56.1292 15.4007H53.0026L45.3003 32ZM54.4007 19.7476H54.5532L57.0698 25.6196H51.8841L54.4007 19.7476ZM69.3712 32V25.8992H74.3027L77.6582 32H81.827L77.9378 25.3145C79.9714 24.4248 81.2932 22.7725 81.2932 20.6373C81.2932 19.3154 80.7848 18.1207 79.9205 17.2056C78.8529 16.0871 77.3023 15.4007 74.9382 15.4007H65.7362V32H69.3712ZM75.0653 18.4766C75.7262 18.4766 76.4634 18.5528 77.0481 19.1883C77.4294 19.5696 77.6327 20.078 77.6327 20.6373C77.6327 21.9083 76.5905 22.8234 75.3195 22.8234H69.3712V18.4766H75.0653ZM98.4333 26.7381C96.9843 28.187 94.8745 29.3817 92.6121 29.3817C89.1804 29.3817 86.9688 26.8397 86.9688 23.7131C86.9688 20.6118 89.1295 18.0444 92.485 18.0444C94.2644 18.0444 96.3997 18.8579 97.9249 20.1797L100.213 17.7902C98.2299 16.0871 95.2303 14.8923 92.1799 14.8923C86.8163 14.8923 83.1558 18.9087 83.1558 23.6877C83.1558 28.5683 86.7909 32.5084 92.307 32.5084C95.9421 32.5084 98.84 30.8815 100.746 29.1021L98.4333 26.7381ZM101.278 23.6622C101.278 28.5937 105.396 32.5084 110.658 32.5084C115.92 32.5084 120.14 28.5937 120.14 23.6622C120.14 18.8324 115.92 14.8923 110.658 14.8923C105.396 14.8923 101.278 18.8324 101.278 23.6622ZM105.091 23.6622C105.091 20.5864 107.531 18.0444 110.658 18.0444C113.835 18.0444 116.327 20.5864 116.327 23.6622C116.327 26.7889 113.835 29.3817 110.658 29.3817C107.531 29.3817 105.091 26.7889 105.091 23.6622Z" fill="black"/>
<path fill-rule="evenodd" clip-rule="evenodd" d="M124.392 20C124.182 14.6646 119.792 10.4032 114.406 10.4C119.925 10.3966 124.398 5.92312 124.4 0.404376C124.402 5.79124 128.664 10.1822 134 10.3921V10.4078C128.795 10.6126 124.613 14.7953 124.408 20H124.392ZM114 10.4078L114 10.3921C114.131 10.3972 114.262 10.3999 114.394 10.4C114.262 10.4 114.131 10.4027 114 10.4078ZM124.392 0C124.397 0.131215 124.4 0.26308 124.4 0.395547C124.4 0.26308 124.403 0.131215 124.408 0H124.392Z" fill="black"/>
</svg>
